#!OML:ASF G:\JayActor3\Patient Classification 1\Patient 1\Session 5\male.ASF
:FULLY-SPECIFIED
:DEGREES
518
root 1.70062 16.3395 -5.96354 677.378 -79.8092 -660.398
lowerback 25.26 -1.35115 -3.11106
upperback 5.83822 -3.09837 -1.66971
thorax -7.49196 -1.60498 0.925208
lowerneck 0.605376 -1.10322 1.56526
upperneck -5.72934 -1.42288 1.21687
head -1.88488 -0.790812 0.143243
rclavicle 4.77083e-015 -1.19271e-015
rhumerus -32.216 -7.19671 -84.4948
rradius 25.883
rwrist 3.39521
rhand -21.6251 -7.66397
rfingers 7.12502
rthumb 4.77074 -37.5903
lclavicle 4.77083e-015 -1.19271e-015
lhumerus -33.9514 0.98005 85.87
lradius 29.3357
lwrist 25.4759
lhand -19.6994 10.2313
lfingers 7.12502
lthumb 6.63 40.1075
rfemur -56.943 4.54285 5.37933
rtibia 29.4784
rfoot -23.8718 -15.6874
rtoes -5.14914
lfemur -6.62502 5.95634 -31.7065
ltibia 22.4841
lfoot -16.5516 -7.95538
ltoes -3.54999
519
root 1.50421 16.3031 -5.98291 678.339 -79.7222 -661.379
lowerback 25.1785 -1.37906 -3.02029
upperback 5.79659 -3.10007 -1.63148
thorax -7.49921 -1.60444 0.913703
lowerneck 0.609 -1.12823 1.55328
upperneck -5.72485 -1.45451 1.25734
head -1.88371 -0.807195 0.158464
rclavicle 2.34566e-014 2.10712e-014
rhumerus -32.2626 -7.31965 -84.3928
rradius 25.7773
rwrist 3.59588
rhand -21.8659 -7.62429
rfingers 7.12502
rthumb 4.53826 -37.5557
lclavicle 2.34566e-014 2.10712e-014
lhumerus -34.0112 1.02083 85.8852
lradius 29.1978
lwrist 25.3966
lhand -19.687 10.2089
lfingers 7.12502
lthumb 6.64197 40.0848
rfemur -56.7972 4.72366 5.52985
rtibia 30.3428
rfoot -22.9605 -15.9128
rtoes -4.04446
lfemur -6.26209 6.14853 -31.3184
ltibia 23.1865
lfoot -16.4889 -8.5247
ltoes -3.96356
520
root 1.30824 16.2727 -6.00161 679.405 -79.6931 -662.456
lowerback 25.1261 -1.40779 -2.8584
upperback 5.74641 -3.08552 -1.58661
thorax -7.53451 -1.59651 0.865251
lowerneck 0.601945 -1.15598 1.53108
upperneck -5.69352 -1.49004 1.30452
head -1.8718 -0.825018 0.177326
rclavicle 2.18663e-014 3.79679e-014
rhumerus -32.3165 -7.41297 -84.313
rradius 25.6935
rwrist 3.7437
rhand -22.1189 -7.59319
rfingers 7.12502
rthumb 4.29394 -37.5296
lclavicle 2.18663e-014 3.79679e-014
lhumerus -34.0583 1.08457 85.8882
lradius 29.0512
lwrist 25.2611
lhand -19.6672 10.2014
lfingers 7.12502
lthumb 6.66111 40.0766
rfemur -56.7627 4.85285 5.79824
rtibia 31.3291
rfoot -21.8291 -16.1929
rtoes -2.70221
lfemur -5.98967 6.33197 -30.8611
ltibia 23.9921
lfoot -16.3033 -9.09142
ltoes -4.46826
521
root 1.11412 16.2499 -6.01898 680.6 -79.7481 -663.658
lowerback 25.1127 -1.43723 -2.61192
upperback 5.69868 -3.05112 -1.52725
thorax -7.5908 -1.58036 0.779777
lowerneck 0.568167 -1.18061 1.50339
upperneck -5.64813 -1.52277 1.34273
head -1.85062 -0.840902 0.193946
rclavicle -6.55989e-015 3.18055e-015
rhumerus -32.3445 -7.45643 -84.2578
rradius 25.6368
rwrist 3.8152
rhand -22.3345 -7.58632
rfingers 7.12502
rthumb 4.08573 -37.5269
lclavicle -6.55989e-015 3.18055e-015
lhumerus -34.0779 1.20158 85.8785
lradius 28.9042
lwrist 25.0743
lhand -19.6591 10.1931
lfingers 7.12502
lthumb 6.6689 40.068
rfemur -56.8547 4.91098 6.21434
rtibia 32.4091
rfoot -20.4665 -16.4405
rtoes -1.20202
lfemur -5.83467 6.49771 -30.3198
ltibia 24.9355
lfoot -15.977 -9.62696
ltoes -5.09749
522
root 0.922308 16.2349 -6.03551 681.897 -79.9024 -664.958
lowerback 25.1533 -1.4613 -2.29034
upperback 5.65305 -2.99166 -1.45085
thorax -7.67541 -1.55349 0.664329
lowerneck 0.511643 -1.19863 1.47313
upperneck -5.59915 -1.54825 1.36324
head -1.82438 -0.852652 0.20512
rclavicle 5.08889e-014 4.96962e-015
rhumerus -32.3401 -7.44341 -84.2271
rradius 25.6129
rwrist 3.81765
rhand -22.4678 -7.6041
rfingers 7.12502
rthumb 3.95708 -37.5471
lclavicle 5.08889e-014 4.96962e-015
lhumerus -34.0788 1.37257 85.858
lradius 28.7655
lwrist 24.859
lhand -19.6716 10.1692
lfingers 7.12502
lthumb 6.65681 40.0446
rfemur -57.0542 4.94205 6.75662
rtibia 33.5505
rfoot -18.9395 -16.605
rtoes 0.320462
lfemur -5.81953 6.64986 -29.6912
ltibia 26.0562
lfoot -15.5038 -10.1243
ltoes -5.84677
523
root 0.733455 16.2265 -6.05203 683.219 -80.1668 -666.273
lowerback 25.2463 -1.4708 -1.9258
upperback 5.61382 -2.90281 -1.35521
thorax -7.78046 -1.51387 0.537886
lowerneck 0.448562 -1.2044 1.44577
upperneck -5.57474 -1.55892 1.35188
head -1.80521 -0.85676 0.205703
rclavicle -1.53064e-014 5.96354e-015
rhumerus -32.283 -7.35741 -84.225
rradius 25.6098
rwrist 3.79866
rhand -22.5724 -7.61431
rfingers 7.12502
rthumb 3.85599 -37.5592
lclavicle -1.53064e-014 5.96354e-015
lhumerus -34.0678 1.57667 85.8396
lradius 28.6568
lwrist 24.6711
lhand -19.7204 10.1379
lfingers 7.12502
lthumb 6.60972 40.0147
rfemur -57.3259 5.00169 7.39683
rtibia 34.7147
rfoot -17.3275 -16.6486
rtoes 1.78255
lfemur -5.96897 6.79604 -28.9878
ltibia 27.3809
lfoot -14.8737 -10.5658
ltoes -6.68784
524
root 0.546676 16.223 -6.06894 684.499 -80.5204 -667.537
lowerback 25.3777 -1.46461 -1.56009
upperback 5.58844 -2.79329 -1.24324
thorax -7.88817 -1.46554 0.422923
lowerneck 0.387025 -1.19206 1.42678
upperneck -5.58819 -1.54692 1.30172
head -1.79892 -0.849487 0.192674
rclavicle 1.0138e-014 1.45113e-014
rhumerus -32.1562 -7.20519 -84.2454
rradius 25.6257
rwrist 3.78685
rhand -22.626 -7.61584
rfingers 7.12502
rthumb 3.80429 -37.5616
lclavicle 1.0138e-014 1.45113e-014
lhumerus -34.0507 1.79312 85.8348
lradius 28.5901
lwrist 24.5518
lhand -19.8171 10.0954
lfingers 7.12502
lthumb 6.51638 39.9752
rfemur -57.6088 5.10357 8.10367
rtibia 35.8661
rfoot -15.7399 -16.5545
rtoes 3.12967
lfemur -6.27373 6.94196 -28.2383
ltibia 28.9087
lfoot -14.0785 -10.965
ltoes -7.50936
525
root 0.360799 16.2226 -6.08673 685.605 -80.9184 -668.62
lowerback 25.5476 -1.44152 -1.23638
upperback 5.56843 -2.67349 -1.12979
thorax -8.0066 -1.41243 0.331027
lowerneck 0.357202 -1.16445 1.41736
upperneck -5.63985 -1.51462 1.22582
head -1.81082 -0.832293 0.170165
rclavicle 4.39314e-014 2.22639e-014
rhumerus -31.9828 -7.0194 -84.28
rradius 25.6611
rwrist 3.79546
rhand -22.6319 -7.60082
rfingers 7.12502
rthumb 3.79855 -37.5467
lclavicle 4.39314e-014 2.22639e-014
lhumerus -34.0508 1.96774 85.8551
lradius 28.5698
lwrist 24.5367
lhand -19.9445 10.0465
lfingers 7.12502
lthumb 6.39335 39.93
rfemur -57.8415 5.22834 8.84437
rtibia 36.9738
rfoot -14.237 -16.3606
rtoes 4.30699
lfemur -6.70459 7.09542 -27.4895
ltibia 30.6081
lfoot -13.0923 -11.339
ltoes -8.19088
526
root 0.175092 16.224 -6.10559 686.428 -81.3084 -669.409
lowerback 25.7284 -1.40594 -0.999797
upperback 5.55476 -2.5607 -1.02311
thorax -8.11913 -1.36191 0.283436
lowerneck 0.366992 -1.12222 1.41746
upperneck -5.72237 -1.46233 1.13317
head -1.83987 -0.80537 0.140942
rclavicle -8.54774e-015 6.16232e-015
rhumerus -31.7689 -6.8191 -84.3206
rradius 25.7162
rwrist 3.81854
rhand -22.6138 -7.56393
rfingers 7.12502
rthumb 3.81602 -37.5095
lclavicle -8.54774e-015 6.16232e-015
lhumerus -34.0613 2.07851 85.9078
lradius 28.5865
lwrist 24.6305
lhand -20.0768 9.98389
lfingers 7.12502
lthumb 6.26564 39.8712
rfemur -57.996 5.32099 9.59551
rtibia 38.0204
rfoot -12.8517 -16.1092
rtoes 5.42258
lfemur -7.23745 7.24855 -26.7883
ltibia 32.4304
lfoot -11.8858 -11.6962
ltoes -8.66235
527
root -0.0104838 16.2279 -6.12511 686.896 -81.6434 -669.825
lowerback 25.9047 -1.36529 -0.862012
upperback 5.54048 -2.46836 -0.936385
thorax -8.22644 -1.31968 0.276398
lowerneck 0.419644 -1.07172 1.42536
upperneck -5.81575 -1.39742 1.04668
head -1.88002 -0.77251 0.112379
rclavicle -7.95139e-015 -1.13307e-014
rhumerus -31.5365 -6.63738 -84.3622
rradius 25.7911
rwrist 3.84003
rhand -22.5792 -7.51771
rfingers 7.12502
rthumb 3.84944 -37.4627
lclavicle -7.95139e-015 -1.13307e-014
lhumerus -34.0683 2.11654 85.9885
lradius 28.6176
lwrist 24.7899
lhand -20.1748 9.91847
lfingers 7.12502
lthumb 6.17109 39.8086
rfemur -58.0795 5.3387 10.3192
rtibia 38.9988
rfoot -11.5977 -15.7958
rtoes 6.59501
lfemur -7.85712 7.38402 -26.1732
ltibia 34.3302
lfoot -10.4512 -11.9997
ltoes -8.85924
528
root -0.195455 16.235 -6.14466 686.986 -81.897 -669.846
lowerback 26.0748 -1.32575 -0.811522
upperback 5.51792 -2.4023 -0.878388
thorax -8.33746 -1.28818 0.295784
lowerneck 0.501503 -1.02093 1.43524
upperneck -5.88824 -1.33 0.986014
head -1.91842 -0.738606 0.0914562
rclavicle 2.06736e-014 1.90833e-014
rhumerus -31.3145 -6.49313 -84.404
rradius 25.8845
rwrist 3.8415
rhand -22.5712 -7.46883
rfingers 7.12502
rthumb 3.85718 -37.4137
lclavicle 2.06736e-014 1.90833e-014
lhumerus -34.0592 2.07892 86.0893
lradius 28.6394
lwrist 24.9647
lhand -20.1974 9.85964
lfingers 7.12502
lthumb 6.14921 39.7504
rfemur -58.1084 5.28492 10.9697
rtibia 39.9087
rfoot -10.488 -15.4506
rtoes 7.86097
lfemur -8.55346 7.48517 -25.6643
ltibia 36.2813
lfoot -8.82472 -12.2179
ltoes -8.74467
